<?xml version="1.0" encoding="utf-8"?>
<!-- Generator: Adobe Illustrator 28.0.0, SVG Export Plug-In . SVG Version: 6.00 Build 0)  -->
<svg version="1.1" id="레이어_1" xmlns="http://www.w3.org/2000/svg" xmlns:xlink="http://www.w3.org/1999/xlink" x="0px"
	 y="0px" viewBox="0 0 1026 614" style="enable-background:new 0 0 1026 614;" xml:space="preserve">
<style type="text/css">
	.st0{fill:url(#SVGID_1_);}
	.st1{opacity:0.25;}
	.st2{clip-path:url(#SVGID_00000015325507730365769040000010437536411868564640_);}
	.st3{opacity:6.000000e-02;}
	.st4{fill:#91A4AE;}
	.st5{opacity:0.3;}
	.st6{opacity:0.25;fill:#91A4AE;}
</style>
<g transform="translate(-127 -53)">
	
		<linearGradient id="SVGID_1_" gradientUnits="userSpaceOnUse" x1="726.6642" y1="403.5036" x2="1218.2656" y2="1161.3751" gradientTransform="matrix(1 0 0 1.0012 -299.2984 -475.1818)">
		<stop  offset="0" style="stop-color:#293782"/>
		<stop  offset="1" style="stop-color:#1102C6;stop-opacity:0.87"/>
	</linearGradient>
	<path class="st0" d="M127.1,53h1025.7v407.7c0,0-286.3,63.5-548.8,0s-476.9,0-476.9,0L127.1,53L127.1,53z"/>
	<g class="st1">
		<g>
			<defs>
				<rect id="SVGID_00000075146964141175529460000018024001172819719555_" x="812" y="179" width="341" height="430"/>
			</defs>
			<clipPath id="SVGID_00000089560717469122802540000009784162959711731101_">
				<use xlink:href="#SVGID_00000075146964141175529460000018024001172819719555_"  style="overflow:visible;"/>
			</clipPath>
			<g style="clip-path:url(#SVGID_00000089560717469122802540000009784162959711731101_);">
				<g transform="translate(812 237)">
					
						<image style="overflow:visible;enable-background:new    ;" width="341" height="313" xlink:href="2D685E89.png"  transform="matrix(0.9998 -1.745243e-02 1.723074e-02 0.9871 828.2796 181.9992)">
					</image>
				</g>
			</g>
		</g>
	</g>
</g>
<g class="st3">
	<path class="st4" d="M89.1-1.3c-1.3,0.1-2.5,0.3-3.8,0.4C222.9,24.7,326.5,136.7,326.5,271c0,38.3-8.4,74.8-23.6,107.9
		c3.2,0.1,6.3,0.2,9.5,0.4c8.2,0.7,15.9,2.9,24,4.4c10.5,1.9,21.6,2.2,32.2,4.5c14.7-36.5,22.8-76,22.8-117.3
		c0-111.7-59-210.7-149.8-272C206.2-1,171-2.4,135.8-2.8C120.1-3.1,104.7-3,89.1-1.3z"/>
</g>
<g class="st5">
	<path class="st6" d="M962.5,66.5c-163.5,0-296,135-296,301.5c0,23.7,2.7,46.7,7.8,68.8c0.7-0.5,1.6-0.8,2.7-0.8
		c13.7,0.1,27.4,2.6,41,3.9c12.8,1.3,27.3,2.9,39.7-1.7c0.7-0.3,1.3-0.4,1.9-0.3c-7.3-21.9-11.2-45.4-11.2-69.8
		c0-120.5,95.9-218.1,214.1-218.1c23.2,0,45.6,3.8,66.5,10.7V74.1C1007.6,69.1,985.4,66.5,962.5,66.5z"/>
</g>
</svg>
