<svg width="32" height="33" viewBox="0 0 32 33" fill="none" xmlns="http://www.w3.org/2000/svg">
<g id="Group 39795">
<path id="Rectangle 4506" d="M17.0596 6.22909C17.0596 4.08472 19.6674 3.02785 21.1603 4.5672L29.6455 13.3165C30.5515 14.2507 31.0581 15.5008 31.0581 16.8021V26.5631C31.0581 28.7075 28.4503 29.7643 26.9574 28.225L18.4722 19.4757C17.5662 18.5415 17.0596 17.2914 17.0596 15.9901V6.22909Z" fill="#0C7FDA"/>
<path id="Rectangle 4505" d="M8.38477 5.89022C8.38477 3.74586 10.9926 2.68899 12.4855 4.22833L20.7677 12.7683C21.8039 13.8367 22.3833 15.2665 22.3833 16.7548V26.2242C22.3833 28.3686 19.7755 29.4255 18.2826 27.8861L9.79736 19.1368C8.89142 18.2027 8.38477 16.9525 8.38477 15.6512V5.89022Z" fill="#2196F3"/>
<path id="Rectangle 4504" d="M0 6.22909C0 4.08472 2.60783 3.02785 4.10071 4.5672L12.5859 13.3165C13.4919 14.2507 13.9985 15.5008 13.9985 16.8021V26.5631C13.9985 28.7075 11.3907 29.7643 9.89783 28.225L1.4126 19.4757C0.506651 18.5415 0 17.2914 0 15.9901V6.22909Z" fill="#6EBBF7"/>
</g>
</svg>
